<svg width="201" height="20" viewBox="0 0 201 20" fill="none" xmlns="http://www.w3.org/2000/svg">
<path d="M36.1834 4.28H32.1434V1.56H43.4434V4.28H39.4034V17.72H36.1834V4.28ZM43.7957 7.48C43.7957 6.41333 43.949 5.48 44.2557 4.68C44.5757 3.88 45.0224 3.21333 45.5957 2.68C46.1824 2.13333 46.8824 1.72667 47.6957 1.46C48.5224 1.18 49.4424 1.04 50.4557 1.04C51.469 1.04 52.389 1.18 53.2157 1.46C54.0424 1.72667 54.7424 2.13333 55.3157 2.68C55.9024 3.21333 56.3557 3.88 56.6757 4.68C56.9957 5.48 57.1557 6.41333 57.1557 7.48V11.64C57.1557 12.6933 56.9957 13.62 56.6757 14.42C56.3557 15.22 55.9024 15.8867 55.3157 16.42C54.7424 16.9533 54.0424 17.3533 53.2157 17.62C52.389 17.9 51.469 18.04 50.4557 18.04C49.4424 18.04 48.5224 17.9 47.6957 17.62C46.8824 17.3533 46.1824 16.9533 45.5957 16.42C45.0224 15.8867 44.5757 15.22 44.2557 14.42C43.949 13.62 43.7957 12.6933 43.7957 11.64V7.48ZM46.9757 11.24C46.9757 12.7067 47.269 13.76 47.8557 14.4C48.4557 15.04 49.3224 15.36 50.4557 15.36C51.5757 15.36 52.429 15.04 53.0157 14.4C53.6157 13.76 53.9157 12.7067 53.9157 11.24V7.92C53.9157 6.44 53.6157 5.38 53.0157 4.74C52.4157 4.1 51.5624 3.78 50.4557 3.78C49.3357 3.78 48.4757 4.1 47.8757 4.74C47.2757 5.38 46.9757 6.44 46.9757 7.92V11.24ZM68.1595 11.3H65.2795V8.66H71.1995V12.78C71.1995 13.66 71.0528 14.4267 70.7595 15.08C70.4661 15.7467 70.0528 16.2933 69.5195 16.72C68.9861 17.16 68.3395 17.4867 67.5795 17.7C66.8328 17.9267 65.9995 18.04 65.0795 18.04C63.0528 18.04 61.4728 17.5 60.3395 16.42C59.2061 15.3533 58.6395 13.76 58.6395 11.64V7.48C58.6395 6.41333 58.7861 5.48 59.0795 4.68C59.3728 3.88 59.7995 3.21333 60.3595 2.68C60.9195 2.13333 61.5995 1.72667 62.3995 1.46C63.1995 1.18 64.1061 1.04 65.1195 1.04C66.9728 1.04 68.4128 1.5 69.4395 2.42C70.4795 3.32667 71.0528 4.6 71.1595 6.24H67.9595C67.8128 5.36 67.5195 4.72667 67.0795 4.34C66.6528 3.94 65.9995 3.74 65.1195 3.74C63.9995 3.74 63.1661 4.1 62.6195 4.82C62.0861 5.52667 61.8195 6.62667 61.8195 8.12V11.04C61.8195 13.9467 62.9061 15.4 65.0795 15.4C65.9595 15.4 66.6928 15.1467 67.2795 14.64C67.8661 14.1333 68.1595 13.3867 68.1595 12.4V11.3ZM83.5554 1.56V4.28H76.5354V8.24H82.7354V10.98H76.5354V14.96H83.7754V17.72H73.3154V1.56H83.5554ZM88.7224 4.28H84.6824V1.56H95.9824V4.28H91.9424V17.72H88.7224V4.28ZM100.442 1.56V7.86H105.722V1.56H108.942V17.72H105.722V10.56H100.442V17.72H97.2216V1.56H100.442ZM121.29 1.56V4.28H114.27V8.24H120.47V10.98H114.27V14.96H121.51V17.72H111.05V1.56H121.29ZM132.101 17.72L129.221 11.4H126.281V17.72H123.061V1.56H129.761C130.721 1.56 131.521 1.71333 132.161 2.02C132.815 2.32667 133.341 2.71333 133.741 3.18C134.141 3.64667 134.421 4.16 134.581 4.72C134.755 5.28 134.841 5.81333 134.841 6.32C134.841 6.72 134.801 7.11333 134.721 7.5C134.655 7.87333 134.521 8.24 134.321 8.6C134.135 8.94667 133.868 9.28 133.521 9.6C133.188 9.90667 132.761 10.1867 132.241 10.44L135.561 17.72H132.101ZM126.281 8.68H128.641C129.068 8.68 129.461 8.65333 129.821 8.6C130.181 8.53333 130.488 8.42 130.741 8.26C131.008 8.08667 131.215 7.86 131.361 7.58C131.508 7.28667 131.581 6.91333 131.581 6.46C131.581 6.00667 131.508 5.64 131.361 5.36C131.215 5.08 131.008 4.86 130.741 4.7C130.488 4.54 130.181 4.43333 129.821 4.38C129.461 4.31333 129.068 4.28 128.641 4.28H126.281V8.68ZM142.029 13.36L145.589 1.56H148.949L143.809 17.72H140.269L135.129 1.56H138.489L142.029 13.36ZM146.929 17.72L152.269 1.56H155.489L160.829 17.72H157.709L156.729 14.74H151.009L150.049 17.72H146.929ZM153.869 5.9L151.849 12.1H155.869L153.869 5.9ZM165.324 1.56V14.96H171.744V17.72H162.104V1.56H165.324ZM178.755 15.36C180.781 15.36 181.795 14.2533 181.795 12.04V1.56H184.995V11.66C184.995 13.8867 184.488 15.5067 183.475 16.52C182.475 17.5333 180.901 18.04 178.755 18.04C176.595 18.04 175.015 17.5333 174.015 16.52C173.015 15.5067 172.515 13.8867 172.515 11.66V1.56H175.735V12.04C175.735 14.2533 176.741 15.36 178.755 15.36ZM197.325 1.56V4.28H190.305V8.24H196.505V10.98H190.305V14.96H197.545V17.72H187.085V1.56H197.325Z" fill="black"/>
<path d="M19.7774 1H12.2316C8.95397 1 7 2.953 7 6.229V13.762C7 17.047 8.95397 19 12.2316 19H19.7684C23.046 19 25 17.047 25 13.771V6.229C25.009 2.953 23.055 1 19.7774 1ZM22.1455 8.722H18.7509L18.4627 11.287H21.4972C21.8574 11.287 22.1546 11.584 22.1546 11.944C22.1546 12.304 21.8574 12.601 21.4972 12.601H18.3186L17.9495 15.895C17.9134 16.228 17.6253 16.48 17.2921 16.48C17.2651 16.48 17.2471 16.48 17.2201 16.48C16.8599 16.444 16.5988 16.111 16.6348 15.751L16.986 12.601H14.4287L14.0595 15.895C14.0235 16.228 13.7354 16.48 13.4022 16.48C13.3752 16.48 13.3572 16.48 13.3302 16.48C12.97 16.444 12.7088 16.111 12.7449 15.751L13.096 12.601H9.86343C9.50325 12.601 9.2061 12.304 9.2061 11.944C9.2061 11.584 9.50325 11.287 9.86343 11.287H13.2581L13.5463 8.722H10.5117C10.1516 8.722 9.85442 8.425 9.85442 8.065C9.85442 7.705 10.1516 7.408 10.5117 7.408H13.6903L14.0595 4.114C14.0955 3.754 14.4287 3.493 14.7889 3.529C15.1491 3.565 15.4102 3.898 15.3742 4.258L15.023 7.408H17.5803L17.9495 4.114C17.9945 3.754 18.3186 3.493 18.6788 3.529C19.039 3.565 19.3001 3.898 19.2641 4.258L18.9129 7.408H22.1636C22.5237 7.408 22.8209 7.705 22.8209 8.065C22.8209 8.425 22.5057 8.722 22.1455 8.722Z" fill="#292D32"/>
</svg>
